<svg width="134" height="18" viewBox="0 0 134 18" fill="none" xmlns="http://www.w3.org/2000/svg">
<path d="M10.5637 8.65553C10.0474 8.56579 9.56287 8.3133 9.16416 7.92618C8.76545 7.53905 8.4682 7.0325 8.30552 6.46293C8.14284 5.89336 8.12111 5.28313 8.24275 4.70023C8.3644 4.11732 8.62464 3.58461 8.99449 3.16143C10.0969 1.89614 12.2181 1.51388 13.3205 2.77918C13.3932 2.86264 13.4604 2.95219 13.5216 3.04707L10.5637 8.65553Z" fill="url(#paint0_linear)"/>
<path d="M12.9874 7.74382C12.6743 8.10388 12.2917 8.37411 11.8706 8.53254C11.4494 8.69096 11.0017 8.73312 10.5637 8.65559C10.3891 8.06414 10.3292 7.43604 10.3883 6.81526C10.4474 6.19448 10.6239 5.59601 10.9056 5.06177C11.1874 4.52752 11.5674 4.07039 12.0192 3.72239C12.471 3.37439 12.9835 3.14392 13.521 3.04712C14.3773 4.36359 14.0165 6.56312 12.9874 7.74382Z" fill="url(#paint1_linear)"/>
<path d="M3.43417 8.65553C3.95052 8.56579 4.43504 8.3133 4.83374 7.92618C5.23245 7.53905 5.5297 7.0325 5.69238 6.46293C5.85506 5.89336 5.87679 5.28313 5.75515 4.70023C5.6335 4.11732 5.37326 3.58461 5.00341 3.16143C3.90098 1.89614 1.77985 1.51388 0.677876 2.77918C0.604888 2.8625 0.537508 2.95206 0.476318 3.04707L3.43417 8.65553Z" fill="url(#paint2_linear)"/>
<path d="M1.01235 7.74403C1.32529 8.10409 1.70784 8.37431 2.12891 8.53274C2.54997 8.69117 2.99766 8.73333 3.43559 8.6558C3.56705 8.21202 3.63392 7.74643 3.63351 7.2777C3.63329 6.2566 3.31517 5.2692 2.73651 4.4936C2.15786 3.71799 1.35677 3.20525 0.477742 3.04785C-0.375809 4.36381 -0.017281 6.56333 1.01235 7.74403Z" fill="url(#paint3_linear)"/>
<path d="M2.1199 4.83493C2.0336 4.73635 1.92991 4.66013 1.8158 4.61141C1.70168 4.56269 1.5798 4.54261 1.45835 4.5525C1.3369 4.5624 1.21871 4.60205 1.11174 4.66878C1.00477 4.73552 0.911495 4.82778 0.838205 4.93937C0.590623 5.31276 0.368971 5.70789 0.175293 6.12112C0.338318 6.73036 0.625094 7.28645 1.01201 7.7436C1.23399 7.99888 1.49156 8.2098 1.77411 8.36764L2.34147 5.76184C2.37732 5.59853 2.37575 5.42735 2.33692 5.26493C2.2981 5.10252 2.22334 4.95439 2.1199 4.83493Z" fill="#FD748D"/>
<path d="M0.710041 11.2291C0.674944 10.9237 0.657465 10.616 0.657718 10.3079C0.671885 8.38816 1.34628 6.55256 2.53406 5.20079C3.72184 3.84903 5.32681 3.09058 6.99952 3.09058C8.67222 3.09058 10.2772 3.84903 11.465 5.20079C12.6528 6.55256 13.3271 8.38816 13.3413 10.3079C13.3418 10.6161 13.3243 10.9241 13.289 11.2296L0.710041 11.2291Z" fill="url(#paint4_linear)"/>
<path d="M13.2889 11.2296C12.8867 14.6641 10.2236 15.9999 6.99917 15.9999C3.7747 15.9999 1.11122 14.6641 0.709473 11.2291C2.34742 9.43167 3.98536 10.0651 5.7143 6.31516C5.83771 6.04732 6.02298 5.82365 6.24981 5.66867C6.41935 5.55234 6.60767 5.47669 6.80341 5.44629C6.99914 5.41589 7.19821 5.43138 7.38858 5.49181C7.57896 5.55224 7.75667 5.65637 7.91097 5.79789C8.06528 5.9394 8.19297 6.11538 8.28632 6.31516C10.0121 10.0651 11.6532 9.43167 13.2912 11.2296H13.2889Z" fill="url(#paint5_linear)"/>
<path d="M2.93035 10.4257C3.31229 10.4257 3.62192 10.14 3.62192 9.78755C3.62192 9.43512 3.31229 9.14941 2.93035 9.14941C2.5484 9.14941 2.23877 9.43512 2.23877 9.78755C2.23877 10.14 2.5484 10.4257 2.93035 10.4257Z" fill="#FFAECF"/>
<path d="M11.0695 10.4257C11.4515 10.4257 11.7611 10.14 11.7611 9.78755C11.7611 9.43512 11.4515 9.14941 11.0695 9.14941C10.6876 9.14941 10.3779 9.43512 10.3779 9.78755C10.3779 10.14 10.6876 10.4257 11.0695 10.4257Z" fill="#FFAECF"/>
<path d="M4.11595 9.78749C4.87331 9.78749 5.48727 9.08282 5.48727 8.21357C5.48727 7.34432 4.87331 6.63965 4.11595 6.63965C3.35859 6.63965 2.74463 7.34432 2.74463 8.21357C2.74463 9.08282 3.35859 9.78749 4.11595 9.78749Z" fill="white"/>
<path d="M9.88353 9.78749C10.6409 9.78749 11.2549 9.08282 11.2549 8.21357C11.2549 7.34432 10.6409 6.63965 9.88353 6.63965C9.12617 6.63965 8.51221 7.34432 8.51221 8.21357C8.51221 9.08282 9.12617 9.78749 9.88353 9.78749Z" fill="white"/>
<path d="M4.11546 9.15219C4.56701 9.15219 4.93306 8.73205 4.93306 8.21379C4.93306 7.69553 4.56701 7.27539 4.11546 7.27539C3.66391 7.27539 3.29785 7.69553 3.29785 8.21379C3.29785 8.73205 3.66391 9.15219 4.11546 9.15219Z" fill="#383842"/>
<path d="M9.88401 9.15219C10.3356 9.15219 10.7016 8.73205 10.7016 8.21379C10.7016 7.69553 10.3356 7.27539 9.88401 7.27539C9.43246 7.27539 9.06641 7.69553 9.06641 8.21379C9.06641 8.73205 9.43246 9.15219 9.88401 9.15219Z" fill="#383842"/>
<path d="M7.45423 10.2892C7.2918 10.2877 7.13343 10.2308 6.99925 10.1257C6.86519 10.2311 6.70673 10.288 6.54426 10.2892C6.42581 10.2867 6.30908 10.2561 6.20148 10.1992C6.09387 10.1423 5.99772 10.0604 5.91912 9.95861C5.87924 9.90657 5.85861 9.83873 5.86162 9.76951C5.86462 9.70028 5.89101 9.63513 5.9352 9.58789C5.97938 9.54064 6.03787 9.51503 6.09824 9.51648C6.15862 9.51794 6.21612 9.54635 6.25853 9.59568C6.29225 9.64576 6.33551 9.6863 6.385 9.71419C6.43449 9.74209 6.4889 9.75659 6.54404 9.75659C6.59917 9.75659 6.65358 9.74209 6.70307 9.71419C6.75256 9.6863 6.79583 9.64576 6.82954 9.59568C6.85125 9.56896 6.87752 9.54765 6.90672 9.53308C6.93591 9.5185 6.96741 9.51099 6.99925 9.51099C7.03108 9.51099 7.06258 9.5185 7.09178 9.53308C7.12097 9.54765 7.14724 9.56896 7.16896 9.59568C7.20267 9.64576 7.24593 9.6863 7.29542 9.71419C7.34492 9.74209 7.39932 9.75659 7.45446 9.75659C7.50959 9.75659 7.564 9.74209 7.61349 9.71419C7.66298 9.6863 7.70625 9.64576 7.73996 9.59568C7.78238 9.54635 7.83988 9.51794 7.90025 9.51648C7.96062 9.51503 8.01911 9.54064 8.0633 9.58789C8.10748 9.63513 8.13388 9.70028 8.13688 9.76951C8.13988 9.83873 8.11925 9.90657 8.07938 9.95861C8.00086 10.0603 7.90479 10.1422 7.79726 10.1991C7.68973 10.256 7.57307 10.2867 7.45469 10.2892H7.45423Z" fill="#383842"/>
<path d="M25.1259 9.64209H20.9071V14H18.7098V3.33594H25.6532V5.11572H20.9071V7.86963H25.1259V9.64209ZM31.0511 8.06006C30.7631 8.021 30.5092 8.00146 30.2894 8.00146C29.4886 8.00146 28.9637 8.27246 28.7147 8.81445V14H26.598V6.0752H28.5975L28.6561 7.02002C29.0809 6.29248 29.6693 5.92871 30.4213 5.92871C30.6556 5.92871 30.8754 5.96045 31.0804 6.02393L31.0511 8.06006ZM31.4833 9.96436C31.4833 9.17822 31.6346 8.47754 31.9374 7.8623C32.2401 7.24707 32.6747 6.771 33.2411 6.43408C33.8124 6.09717 34.474 5.92871 35.226 5.92871C36.2953 5.92871 37.1669 6.25586 37.8407 6.91016C38.5194 7.56445 38.8978 8.45312 38.976 9.57617L38.9906 10.1182C38.9906 11.334 38.6512 12.3105 37.9725 13.0479C37.2938 13.7803 36.3832 14.1465 35.2406 14.1465C34.098 14.1465 33.1849 13.7803 32.5013 13.0479C31.8226 12.3154 31.4833 11.3193 31.4833 10.0596V9.96436ZM33.6 10.1182C33.6 10.8701 33.7416 11.4463 34.0248 11.8467C34.308 12.2422 34.7133 12.4399 35.2406 12.4399C35.7533 12.4399 36.1537 12.2446 36.4418 11.854C36.7299 11.4585 36.8739 10.8286 36.8739 9.96436C36.8739 9.22705 36.7299 8.65576 36.4418 8.25049C36.1537 7.84521 35.7484 7.64258 35.226 7.64258C34.7084 7.64258 34.308 7.84521 34.0248 8.25049C33.7416 8.65088 33.6 9.27344 33.6 10.1182ZM42.2426 6.0752L42.3085 6.99072C42.8749 6.28271 43.6342 5.92871 44.5863 5.92871C45.4261 5.92871 46.0511 6.17529 46.4613 6.66846C46.8715 7.16162 47.0814 7.89893 47.0912 8.88037V14H44.9745V8.93164C44.9745 8.48242 44.8768 8.15771 44.6815 7.95752C44.4862 7.75244 44.1615 7.6499 43.7074 7.6499C43.1117 7.6499 42.6649 7.90381 42.3671 8.41162V14H40.2504V6.0752H42.2426ZM51.2367 4.12695V6.0752H52.5917V7.62793H51.2367V11.583C51.2367 11.876 51.2928 12.0859 51.4052 12.2129C51.5175 12.3398 51.7323 12.4033 52.0497 12.4033C52.2841 12.4033 52.4916 12.3862 52.6722 12.3521V13.9561C52.2572 14.083 51.83 14.1465 51.3905 14.1465C49.9061 14.1465 49.1493 13.397 49.12 11.8979V7.62793H47.9628V6.0752H49.12V4.12695H51.2367Z" fill="white"/>
<path d="M66.3237 10.4478C66.2407 11.5952 65.8159 12.4985 65.0493 13.1577C64.2876 13.8169 63.2817 14.1465 62.0317 14.1465C60.6646 14.1465 59.5879 13.6875 58.8018 12.7695C58.0205 11.8467 57.6299 10.582 57.6299 8.97559V8.32373C57.6299 7.29834 57.8105 6.39502 58.1719 5.61377C58.5332 4.83252 59.0483 4.23438 59.7173 3.81934C60.3911 3.39941 61.1724 3.18945 62.061 3.18945C63.2915 3.18945 64.2827 3.51904 65.0347 4.17822C65.7866 4.8374 66.2212 5.7627 66.3384 6.9541H64.1411C64.0874 6.26562 63.8945 5.76758 63.5625 5.45996C63.2354 5.14746 62.7349 4.99121 62.061 4.99121C61.3286 4.99121 60.7793 5.25488 60.4131 5.78223C60.0518 6.30469 59.8662 7.11768 59.8564 8.22119V9.02686C59.8564 10.1792 60.0298 11.0215 60.3765 11.5537C60.728 12.0859 61.2798 12.3521 62.0317 12.3521C62.7104 12.3521 63.2158 12.1982 63.5479 11.8906C63.8848 11.5781 64.0776 11.0972 64.1265 10.4478H66.3237ZM72.2197 14C72.1221 13.8096 72.0513 13.5728 72.0073 13.2896C71.4946 13.8608 70.8281 14.1465 70.0078 14.1465C69.2314 14.1465 68.5869 13.9219 68.0742 13.4727C67.5664 13.0234 67.3125 12.457 67.3125 11.7734C67.3125 10.9336 67.6226 10.2891 68.2427 9.83984C68.8677 9.39062 69.7686 9.16357 70.9453 9.15869H71.9194V8.70459C71.9194 8.33838 71.8242 8.04541 71.6338 7.82568C71.4482 7.60596 71.1528 7.49609 70.7476 7.49609C70.3911 7.49609 70.1104 7.58154 69.9053 7.75244C69.7051 7.92334 69.605 8.15771 69.605 8.45557H67.4883C67.4883 7.99658 67.6299 7.57178 67.9131 7.18115C68.1963 6.79053 68.5967 6.48535 69.1143 6.26562C69.6318 6.04102 70.2129 5.92871 70.8574 5.92871C71.834 5.92871 72.6079 6.17529 73.1792 6.66846C73.7554 7.15674 74.0435 7.84521 74.0435 8.73389V12.1689C74.0483 12.9209 74.1533 13.4897 74.3584 13.8755V14H72.2197ZM70.4692 12.5278C70.7817 12.5278 71.0698 12.4595 71.3335 12.3228C71.5972 12.1812 71.7925 11.9932 71.9194 11.7588V10.3965H71.1284C70.0688 10.3965 69.5049 10.7627 69.4365 11.4951L69.4292 11.6196C69.4292 11.8833 69.522 12.1006 69.7075 12.2715C69.8931 12.4424 70.147 12.5278 70.4692 12.5278ZM78.2036 4.12695V6.0752H79.5586V7.62793H78.2036V11.583C78.2036 11.876 78.2598 12.0859 78.3721 12.2129C78.4844 12.3398 78.6992 12.4033 79.0166 12.4033C79.251 12.4033 79.4585 12.3862 79.6392 12.3521V13.9561C79.2241 14.083 78.7969 14.1465 78.3574 14.1465C76.873 14.1465 76.1162 13.397 76.0869 11.8979V7.62793H74.9297V6.0752H76.0869V4.12695H78.2036ZM80.4448 11.1289C80.4448 10.6357 80.5815 10.1792 80.855 9.75928C81.1333 9.33936 81.6411 8.87305 82.3784 8.36035C82.061 7.93555 81.812 7.5376 81.6313 7.1665C81.4507 6.79053 81.3604 6.3999 81.3604 5.99463C81.3604 5.16455 81.6216 4.49072 82.144 3.97314C82.6714 3.45068 83.3794 3.18945 84.2681 3.18945C85.064 3.18945 85.7158 3.42627 86.2236 3.8999C86.7363 4.37354 86.9927 4.96436 86.9927 5.67236C86.9927 6.52197 86.563 7.27148 85.7036 7.9209L84.8833 8.51416L86.7217 10.6528C87.0098 10.0864 87.1538 9.46143 87.1538 8.77783H88.9556C88.9556 10.1646 88.6357 11.2876 87.9961 12.147L89.5928 14H87.1904L86.6411 13.3701C85.855 13.8877 84.9517 14.1465 83.9312 14.1465C82.8765 14.1465 82.0317 13.8706 81.397 13.3188C80.7622 12.7622 80.4448 12.0322 80.4448 11.1289ZM84.0337 12.4473C84.5415 12.4473 85.0225 12.3057 85.4766 12.0225L83.3745 9.59082L83.2207 9.70068C82.7861 10.0718 82.5688 10.5088 82.5688 11.0117C82.5688 11.4365 82.7031 11.7832 82.9717 12.0518C83.2451 12.3154 83.5991 12.4473 84.0337 12.4473ZM83.2573 5.96533C83.2573 6.33154 83.4722 6.79297 83.9019 7.34961L84.4658 6.97607C84.7539 6.79053 84.9517 6.60986 85.0591 6.43408C85.1714 6.2583 85.2275 6.04834 85.2275 5.8042C85.2275 5.56006 85.1372 5.34766 84.9565 5.16699C84.7759 4.98633 84.5439 4.896 84.2607 4.896C83.958 4.896 83.7139 4.99365 83.5283 5.18896C83.3477 5.38428 83.2573 5.64307 83.2573 5.96533ZM90.7207 14V3.33594H94.002C94.9395 3.33594 95.7769 3.54834 96.5142 3.97314C97.2563 4.39307 97.835 4.99365 98.25 5.7749C98.665 6.55127 98.8726 7.43506 98.8726 8.42627V8.91699C98.8726 9.9082 98.6675 10.7896 98.2573 11.561C97.8521 12.3325 97.2783 12.9307 96.5361 13.3555C95.7939 13.7803 94.9565 13.9951 94.0239 14H90.7207ZM92.918 5.11572V12.2349H93.98C94.8394 12.2349 95.4961 11.9541 95.9502 11.3926C96.4043 10.8311 96.6362 10.0278 96.646 8.98291V8.41895C96.646 7.33496 96.4214 6.51465 95.9722 5.95801C95.5229 5.39648 94.8662 5.11572 94.002 5.11572H92.918ZM100.008 9.96436C100.008 9.17822 100.159 8.47754 100.462 7.8623C100.765 7.24707 101.199 6.771 101.766 6.43408C102.337 6.09717 102.999 5.92871 103.75 5.92871C104.82 5.92871 105.691 6.25586 106.365 6.91016C107.044 7.56445 107.422 8.45312 107.5 9.57617L107.515 10.1182C107.515 11.334 107.176 12.3105 106.497 13.0479C105.818 13.7803 104.908 14.1465 103.765 14.1465C102.623 14.1465 101.709 13.7803 101.026 13.0479C100.347 12.3154 100.008 11.3193 100.008 10.0596V9.96436ZM102.125 10.1182C102.125 10.8701 102.266 11.4463 102.549 11.8467C102.833 12.2422 103.238 12.4399 103.765 12.4399C104.278 12.4399 104.678 12.2446 104.966 11.854C105.254 11.4585 105.398 10.8286 105.398 9.96436C105.398 9.22705 105.254 8.65576 104.966 8.25049C104.678 7.84521 104.273 7.64258 103.75 7.64258C103.233 7.64258 102.833 7.84521 102.549 8.25049C102.266 8.65088 102.125 9.27344 102.125 10.1182ZM108.511 9.979C108.511 8.76318 108.799 7.78418 109.375 7.04199C109.957 6.2998 110.738 5.92871 111.719 5.92871C112.588 5.92871 113.265 6.22656 113.748 6.82227L113.836 6.0752H115.755V13.7363C115.755 14.4297 115.596 15.0327 115.279 15.5454C114.966 16.0581 114.524 16.4487 113.953 16.7173C113.382 16.9858 112.713 17.1201 111.946 17.1201C111.365 17.1201 110.799 17.0029 110.247 16.7686C109.695 16.5391 109.278 16.2412 108.995 15.875L109.932 14.5859C110.459 15.1768 111.099 15.4722 111.851 15.4722C112.413 15.4722 112.85 15.3208 113.162 15.0181C113.475 14.7202 113.631 14.2954 113.631 13.7437V13.3188C113.143 13.8706 112.5 14.1465 111.705 14.1465C110.752 14.1465 109.981 13.7754 109.39 13.0332C108.804 12.2861 108.511 11.2974 108.511 10.0669V9.979ZM110.628 10.1328C110.628 10.8506 110.772 11.4146 111.06 11.8247C111.348 12.23 111.744 12.4326 112.247 12.4326C112.891 12.4326 113.353 12.1909 113.631 11.7075V8.375C113.348 7.8916 112.891 7.6499 112.261 7.6499C111.753 7.6499 111.353 7.85742 111.06 8.27246C110.772 8.6875 110.628 9.30762 110.628 10.1328Z" fill="#F0A83E"/>
<path d="M130.416 2.39636C131.095 1.8396 131.986 1.87916 132.655 2.45357C133.27 2.96991 133.724 3.72769 133.942 4.60246C134.024 4.93492 134.019 5.29076 133.927 5.61953C133.836 5.9483 133.662 6.2333 133.431 6.43412C133.2 6.63493 132.924 6.74137 132.641 6.73834C132.358 6.7353 132.083 6.62294 131.855 6.4172L129.621 4.39987C129.621 3.35593 129.986 2.74911 130.416 2.39779V2.39636Z" fill="url(#paint6_linear)"/>
<path d="M123.583 2.39636C122.904 1.8396 122.013 1.87916 121.345 2.45357C120.73 2.96991 120.276 3.72769 120.058 4.60246C119.976 4.93492 119.981 5.29076 120.073 5.61953C120.164 5.9483 120.338 6.2333 120.569 6.43412C120.8 6.63493 121.076 6.74137 121.359 6.73834C121.642 6.7353 121.917 6.62294 122.145 6.4172L124.379 4.39987C124.379 3.35593 124.014 2.74911 123.584 2.39779L123.583 2.39636Z" fill="url(#paint7_linear)"/>
<path d="M123.168 4.18437C123.043 4.03035 122.873 3.94385 122.695 3.94385C122.518 3.94385 122.347 4.03035 122.222 4.18437C121.646 4.88606 121.176 5.70837 120.835 6.6126C121.049 6.72052 121.282 6.75914 121.511 6.72475C121.741 6.69036 121.959 6.58411 122.145 6.41621L123.271 5.18493C123.347 5.0279 123.378 4.84427 123.359 4.66306C123.341 4.48186 123.274 4.31342 123.168 4.18437Z" fill="#5C586F"/>
<path d="M132.568 11.4533C132.239 14.4087 130.693 15.9999 127 15.9999C122.778 15.9999 121.363 13.9215 121.363 10.0985C121.363 9.01078 121.572 7.93842 121.973 6.9683C122.373 5.99818 122.954 5.15757 123.669 4.51456C124.383 3.87155 125.211 3.44422 126.085 3.26717C126.959 3.09012 127.855 3.16834 128.7 3.49548L132.568 11.4533Z" fill="url(#paint8_linear)"/>
<path d="M132.637 10.1008C132.639 10.5538 132.616 11.0064 132.568 11.4556C132.029 11.6386 131.464 11.6665 130.916 11.5371C130.367 11.4076 129.85 11.1243 129.406 10.7093C128.961 10.2942 128.601 9.75867 128.353 9.14436C128.104 8.53004 127.975 7.85359 127.975 7.16779C127.975 5.26105 128.133 4.13798 128.697 3.49731C129.84 3.94091 130.838 4.82021 131.547 6.00763C132.255 7.19505 132.637 8.6288 132.637 10.1008Z" fill="url(#paint9_linear)"/>
<path d="M123.192 10.0556C123.549 10.0556 123.839 9.76961 123.839 9.41683C123.839 9.06406 123.549 8.77808 123.192 8.77808C122.835 8.77808 122.545 9.06406 122.545 9.41683C122.545 9.76961 122.835 10.0556 123.192 10.0556Z" fill="#FFAECF"/>
<path d="M130.807 10.0556C131.164 10.0556 131.454 9.76961 131.454 9.41683C131.454 9.06406 131.164 8.77808 130.807 8.77808C130.449 8.77808 130.16 9.06406 130.16 9.41683C130.16 9.76961 130.449 10.0556 130.807 10.0556Z" fill="#FFAECF"/>
<path d="M125.568 8.09385C125.681 7.23474 125.206 6.42524 124.507 6.28579C123.807 6.14634 123.148 6.72974 123.034 7.58885C122.921 8.44796 123.396 9.25746 124.095 9.39691C124.795 9.53637 125.454 8.95297 125.568 8.09385Z" fill="white"/>
<path d="M129.698 9.41673C130.407 9.41673 130.981 8.71117 130.981 7.84081C130.981 6.97046 130.407 6.26489 129.698 6.26489C128.989 6.26489 128.415 6.97046 128.415 7.84081C128.415 8.71117 128.989 9.41673 129.698 9.41673Z" fill="white"/>
<path d="M125.073 7.95386C125.14 7.44041 124.856 6.95691 124.438 6.87392C124.02 6.79093 123.626 7.13988 123.558 7.65333C123.491 8.16678 123.775 8.65028 124.193 8.73328C124.611 8.81627 125.005 8.46731 125.073 7.95386Z" fill="#383842"/>
<path d="M129.697 8.77975C130.12 8.77975 130.462 8.35931 130.462 7.84068C130.462 7.32205 130.12 6.90161 129.697 6.90161C129.275 6.90161 128.933 7.32205 128.933 7.84068C128.933 8.35931 129.275 8.77975 129.697 8.77975Z" fill="#383842"/>
<path d="M127.426 9.89559C127.273 9.89436 127.123 9.83546 126.999 9.72684C126.874 9.83546 126.725 9.89436 126.572 9.89559C126.464 9.8927 126.358 9.86245 126.26 9.80675C126.162 9.75104 126.075 9.67109 126.003 9.57192C125.986 9.54854 125.972 9.5211 125.963 9.49117C125.954 9.46125 125.949 9.42942 125.95 9.39751C125.951 9.36559 125.957 9.33422 125.968 9.30517C125.979 9.27613 125.994 9.24998 126.013 9.22823C126.032 9.20647 126.055 9.18954 126.079 9.17839C126.103 9.16724 126.129 9.16209 126.155 9.16324C126.181 9.16439 126.207 9.17182 126.231 9.1851C126.254 9.19837 126.276 9.21724 126.293 9.24062C126.326 9.29319 126.369 9.33574 126.418 9.365C126.467 9.39426 126.52 9.40948 126.574 9.40948C126.628 9.40948 126.682 9.39426 126.731 9.365C126.779 9.33574 126.822 9.29319 126.855 9.24062C126.874 9.21623 126.896 9.19677 126.921 9.18347C126.946 9.17017 126.973 9.16331 127 9.16331C127.027 9.16331 127.054 9.17017 127.079 9.18347C127.104 9.19677 127.126 9.21623 127.145 9.24062C127.178 9.29319 127.221 9.33574 127.27 9.365C127.318 9.39426 127.372 9.40948 127.426 9.40948C127.48 9.40948 127.534 9.39426 127.582 9.365C127.631 9.33574 127.674 9.29319 127.707 9.24062C127.725 9.21724 127.746 9.19837 127.77 9.1851C127.793 9.17182 127.819 9.16439 127.845 9.16324C127.871 9.16209 127.897 9.16724 127.921 9.17839C127.946 9.18954 127.968 9.20647 127.987 9.22823C128.006 9.24998 128.021 9.27613 128.032 9.30517C128.043 9.33422 128.049 9.36559 128.05 9.39751C128.051 9.42942 128.047 9.46125 128.038 9.49117C128.028 9.5211 128.015 9.54854 127.997 9.57192C127.925 9.6715 127.837 9.75169 127.739 9.80741C127.641 9.86313 127.534 9.89315 127.426 9.89559H127.426Z" fill="#383842"/>
<path d="M127.703 8.13844C127.703 8.41682 127.388 8.64181 127 8.64181C126.612 8.64181 126.297 8.41682 126.297 8.13844C126.297 7.86005 126.612 7.82764 127 7.82764C127.388 7.82764 127.703 7.86053 127.703 8.13844Z" fill="#383842"/>
<defs>
<linearGradient id="paint0_linear" x1="877.405" y1="1589.74" x2="1495.43" y2="1589.74" gradientUnits="userSpaceOnUse">
<stop stop-color="#4F4C5F"/>
<stop offset="1" stop-color="#77718A"/>
</linearGradient>
<linearGradient id="paint1_linear" x1="10.3668" y1="5.86923" x2="14.0001" y2="5.86923" gradientUnits="userSpaceOnUse">
<stop stop-color="#FD869C"/>
<stop offset="1" stop-color="#FDB0BF"/>
</linearGradient>
<linearGradient id="paint2_linear" x1="-17.8962" y1="1589.74" x2="600.128" y2="1589.74" gradientUnits="userSpaceOnUse">
<stop stop-color="#77718A"/>
<stop offset="1" stop-color="#4F4C5F"/>
</linearGradient>
<linearGradient id="paint3_linear" x1="-0.000200953" y1="5.86944" x2="3.63357" y2="5.86944" gradientUnits="userSpaceOnUse">
<stop stop-color="#FDB0BF"/>
<stop offset="1" stop-color="#FD869C"/>
</linearGradient>
<linearGradient id="paint4_linear" x1="6.99984" y1="11.2293" x2="6.99984" y2="3.0287" gradientUnits="userSpaceOnUse">
<stop stop-color="#FDB58A"/>
<stop offset="1" stop-color="#3C2313"/>
</linearGradient>
<linearGradient id="paint5_linear" x1="6.99927" y1="16.0003" x2="6.99927" y2="5.43042" gradientUnits="userSpaceOnUse">
<stop stop-color="#FFF5E3"/>
<stop offset="1" stop-color="#F0A83E"/>
</linearGradient>
<linearGradient id="paint6_linear" x1="129.622" y1="4.3678" x2="134.001" y2="4.3678" gradientUnits="userSpaceOnUse">
<stop stop-color="#4F4C5F"/>
<stop offset="1" stop-color="#77718A"/>
</linearGradient>
<linearGradient id="paint7_linear" x1="119.999" y1="4.3678" x2="124.379" y2="4.3678" gradientUnits="userSpaceOnUse">
<stop stop-color="#77718A"/>
<stop offset="1" stop-color="#4F4C5F"/>
</linearGradient>
<linearGradient id="paint8_linear" x1="126.966" y1="15.9995" x2="126.966" y2="3.17402" gradientUnits="userSpaceOnUse">
<stop stop-color="#F0A83E"/>
<stop offset="1" stop-color="#FFF5E3"/>
</linearGradient>
<linearGradient id="paint9_linear" x1="127.975" y1="7.55427" x2="132.638" y2="7.55427" gradientUnits="userSpaceOnUse">
<stop stop-color="#EFC4AB"/>
<stop offset="1" stop-color="#3C2313"/>
</linearGradient>
</defs>
</svg>
