<svg width="48" height="48" viewBox="0 0 48 48" fill="none" xmlns="http://www.w3.org/2000/svg">
<g clip-path="url(#clip0)">
<path d="M31.8675 31.6592C36.8688 23.8112 36.2401 24.7903 36.3842 24.5857C38.2051 22.0174 39.1675 18.9946 39.1675 15.844C39.1675 7.48864 32.3873 0.605713 24.021 0.605713C15.682 0.605713 8.87454 7.47506 8.87454 15.844C8.87454 18.9926 9.85714 22.0945 11.7377 24.6974L16.1744 31.6593C11.4308 32.3883 3.36673 34.5606 3.36673 39.344C3.36673 41.0877 4.50483 43.5726 9.92672 45.509C13.7126 46.8611 18.718 47.6057 24.021 47.6057C33.9374 47.6057 44.6753 44.8085 44.6753 39.344C44.6753 34.5598 36.6207 32.3897 31.8675 31.6592ZM14.038 23.1827C14.0229 23.159 14.0071 23.1359 13.9906 23.1131C12.4257 20.9603 11.6284 18.4089 11.6284 15.844C11.6284 8.95758 17.1735 3.35962 24.021 3.35962C30.8543 3.35962 36.4136 8.96006 36.4136 15.844C36.4136 18.413 35.6314 20.8779 34.1512 22.9739C34.0185 23.1489 34.7106 22.0738 24.021 38.8473L14.038 23.1827ZM24.021 44.8518C13.1895 44.8518 6.12064 41.668 6.12064 39.344C6.12064 37.782 9.75285 35.2136 17.8016 34.2125L22.8598 42.1495C23.1126 42.5462 23.5505 42.7864 24.0209 42.7864C24.4914 42.7864 24.9294 42.5461 25.1821 42.1495L30.2402 34.2125C38.2891 35.2136 41.9214 37.782 41.9214 39.344C41.9214 41.6483 34.9161 44.8518 24.021 44.8518Z" fill="white"/>
<path d="M24.021 8.95923C20.2247 8.95923 17.1362 12.0477 17.1362 15.844C17.1362 19.6403 20.2247 22.7288 24.021 22.7288C27.8172 22.7288 30.9057 19.6403 30.9057 15.844C30.9057 12.0477 27.8172 8.95923 24.021 8.95923ZM24.021 19.9749C21.7432 19.9749 19.8901 18.1217 19.8901 15.844C19.8901 13.5662 21.7432 11.7131 24.021 11.7131C26.2987 11.7131 28.1518 13.5662 28.1518 15.844C28.1518 18.1217 26.2987 19.9749 24.021 19.9749Z" fill="white"/>
</g>
<defs>
<clipPath id="clip0">
<rect width="47" height="47" fill="white" transform="translate(0.520996 0.605713)"/>
</clipPath>
</defs>
</svg>
