<svg xmlns="http://www.w3.org/2000/svg" fill="#F0A83E" viewBox="0 0 15 14" width="1rem">
  <g>
    <path d="M10 7.4C9.4 6.4 8.2 6 7 6c-1.3 0-2.4.5-3.1 1.5L2.3 9.8a2 2 0 00.1 2.6c.4.3.8.6 1.3.7.5 0 1 0 1.4-.2h0c1.2-.4 2.5-.4 3.7 0a2.4 2.4 0 002.7-.5c.3-.4.5-.8.5-1.3s0-1-.3-1.3L10 7.4zm.8 4.4c-.4.5-1 .6-1.7.4a5.7 5.7 0 00-4.3 0h0c-.6.2-1.3 0-1.7-.4-.4-.4-.4-1-.1-1.6L4.6 8C5.1 7 6 6.7 7 6.7s1.8.4 2.3 1.2l1.6 2.3c.4.5.3 1.2-.1 1.6zM2.7 7.4c.5-.2.8-.5 1-1 .2-.5.2-1 0-1.5S3 4 2.7 3.8c-.5-.2-1-.3-1.5-.1C.2 4-.3 5.2.2 6.2c.3.8 1 1.3 1.9 1.3h.6zM1 6c-.3-.6 0-1.3.5-1.4l.3-.1.4.1A1.3 1.3 0 013 6.1c-.1.3-.3.5-.5.6h0c-.5.1-1.2-.2-1.4-.8zM5.8 5.6c1.3 0 2.3-1 2.3-2.4C8 2 7 1 5.8 1c-1.2 0-2.2 1-2.2 2.3 0 1.3 1 2.4 2.2 2.4zm0-3.9c.8 0 1.4.7 1.4 1.5 0 .9-.6 1.5-1.4 1.5-.7 0-1.3-.6-1.3-1.5 0-.8.6-1.5 1.3-1.5zM9.7 6.1h0l.5.1c1 0 1.8-.6 2.1-1.5.2-.5.2-1.1 0-1.6-.3-.5-.7-.9-1.2-1a2 2 0 00-1.6.2c-.5.2-.9.7-1 1.2-.4 1.1 0 2.3 1.2 2.6zm-.4-2.3c.1-.4.4-.7.7-.8.2-.2.6-.2.8-.2.3.1.5.3.6.6.2.3.2.7 0 1-.2.7-.9 1.1-1.5 1-.6-.2-.9-1-.6-1.6zM14.3 5.9h0c-.8-.6-2.1-.4-2.8.5-.7 1-.6 2.1.2 2.7.3.2.7.3 1 .3.7 0 1.4-.3 1.8-.9.7-.9.6-2-.2-2.6zM13.8 8c-.4.6-1 .7-1.5.4-.5-.3-.5-1 0-1.5.2-.3.6-.5 1-.5l.5.1c.4.3.4 1 0 1.5z"/>
  </g>
</svg>