<svg width="45" height="45" viewBox="0 0 45 45" fill="none" xmlns="http://www.w3.org/2000/svg">
<path d="M35.5634 27.8758C34.6421 26.9165 33.5309 26.4037 32.3532 26.4037C31.185 26.4037 30.0643 26.907 29.105 27.8663L26.1038 30.858C25.8568 30.7251 25.6099 30.6016 25.3725 30.4781C25.0306 30.3072 24.7076 30.1457 24.4322 29.9747C21.6209 28.1892 19.0661 25.8623 16.6157 22.8516C15.4285 21.351 14.6307 20.0878 14.0514 18.8056C14.8302 18.0933 15.552 17.3525 16.2548 16.6402C16.5207 16.3742 16.7867 16.0988 17.0526 15.8329C19.0471 13.8384 19.0471 11.2551 17.0526 9.26057L14.4598 6.66774C14.1653 6.37331 13.8614 6.06939 13.5765 5.76547C13.0066 5.17662 12.4083 4.56878 11.791 3.99892C10.8697 3.08716 9.76798 2.60278 8.60928 2.60278C7.45058 2.60278 6.32986 3.08716 5.38011 3.99892C5.37061 4.00842 5.37061 4.00842 5.36111 4.01792L2.13194 7.27558C0.916255 8.49127 0.222933 9.97289 0.0709719 11.6919C-0.15697 14.4652 0.659821 17.0486 1.28666 18.7391C2.82526 22.8896 5.12367 26.7361 8.55229 30.858C12.7122 35.8252 17.7174 39.7477 23.435 42.5115C25.6194 43.5468 28.5352 44.7719 31.7928 44.9809C31.9923 44.9904 32.2012 44.9999 32.3912 44.9999C34.5851 44.9999 36.4276 44.2116 37.8713 42.6445C37.8808 42.6255 37.8997 42.616 37.9092 42.597C38.4031 41.9987 38.973 41.4573 39.5713 40.8779C39.9797 40.4885 40.3976 40.0802 40.806 39.6528C41.7463 38.6745 42.2401 37.5348 42.2401 36.3666C42.2401 35.1889 41.7368 34.0587 40.7775 33.1089L35.5634 27.8758ZM38.9635 37.8767C38.954 37.8767 38.954 37.8862 38.9635 37.8767C38.5931 38.2756 38.2132 38.6365 37.8048 39.0354C37.1874 39.6243 36.5606 40.2416 35.9717 40.9349C35.0125 41.9607 33.8823 42.445 32.4007 42.445C32.2582 42.445 32.1062 42.445 31.9638 42.4355C29.143 42.2551 26.5217 41.1534 24.5557 40.2131C19.1801 37.6108 14.4598 33.9162 10.5373 29.2339C7.29861 25.3304 5.13317 21.7214 3.69904 17.8464C2.81577 15.4815 2.49285 13.6389 2.63531 11.9009C2.73029 10.7897 3.15768 9.86842 3.94598 9.08012L7.18464 5.84145C7.65002 5.40456 8.1439 5.16712 8.62827 5.16712C9.22662 5.16712 9.71099 5.52803 10.0149 5.83195C10.0244 5.84145 10.0339 5.85095 10.0434 5.86045C10.6228 6.40181 11.1736 6.96216 11.753 7.56051C12.0474 7.86443 12.3513 8.16835 12.6552 8.48177L15.2481 11.0746C16.2548 12.0813 16.2548 13.0121 15.2481 14.0189C14.9726 14.2943 14.7067 14.5697 14.4313 14.8356C13.6335 15.6524 12.8737 16.4122 12.0474 17.153C12.0284 17.172 12.0094 17.1815 11.9999 17.2005C11.1831 18.0173 11.3351 18.8151 11.506 19.3565C11.5155 19.385 11.525 19.4135 11.5345 19.442C12.2089 21.0755 13.1586 22.6141 14.6022 24.4472L14.6117 24.4567C17.2331 27.6858 19.9969 30.2027 23.0456 32.1307C23.435 32.3776 23.8339 32.5771 24.2138 32.767C24.5557 32.938 24.8786 33.0994 25.154 33.2704C25.192 33.2894 25.23 33.3179 25.268 33.3369C25.5909 33.4983 25.8948 33.5743 26.2083 33.5743C26.9966 33.5743 27.4904 33.0805 27.6519 32.919L30.9 29.6708C31.223 29.3479 31.7358 28.9585 32.3342 28.9585C32.923 28.9585 33.4074 29.3289 33.7018 29.6518C33.7113 29.6613 33.7113 29.6613 33.7208 29.6708L38.954 34.904C39.9322 35.8727 39.9322 36.87 38.9635 37.8767Z" fill="white"/>
<path d="M24.3191 10.7043C26.8075 11.1222 29.0679 12.2999 30.8725 14.1044C32.677 15.9089 33.8452 18.1694 34.2726 20.6577C34.3771 21.2846 34.9184 21.7215 35.5358 21.7215C35.6117 21.7215 35.6782 21.712 35.7542 21.7025C36.457 21.5885 36.9224 20.9237 36.8084 20.2208C36.2956 17.2101 34.8709 14.4653 32.696 12.2904C30.521 10.1154 27.7762 8.6908 24.7655 8.17793C24.0627 8.06396 23.4074 8.52934 23.2839 9.22266C23.1604 9.91599 23.6163 10.5903 24.3191 10.7043Z" fill="white"/>
<path d="M44.9478 19.8504C44.1025 14.8927 41.7661 10.3814 38.1761 6.79131C34.586 3.20123 30.0747 0.86483 25.1169 0.0195474C24.4236 -0.103921 23.7683 0.370957 23.6448 1.06428C23.5308 1.7671 23.9962 2.42243 24.699 2.5459C29.1249 3.2962 33.1614 5.39516 36.3715 8.59584C39.5817 11.806 41.6712 15.8425 42.4215 20.2683C42.5259 20.8952 43.0673 21.3321 43.6846 21.3321C43.7606 21.3321 43.8271 21.3226 43.9031 21.3131C44.5964 21.2086 45.0713 20.5438 44.9478 19.8504Z" fill="white"/>
</svg>
