<svg width="108" height="16" viewBox="0 0 108 16" fill="none" xmlns="http://www.w3.org/2000/svg">
<path d="M3.19922 9.99023V15H0.269531V0.78125H5.81641C6.88411 0.78125 7.82161 0.976562 8.62891 1.36719C9.44271 1.75781 10.0677 2.31445 10.5039 3.03711C10.9401 3.75326 11.1582 4.57031 11.1582 5.48828C11.1582 6.88151 10.6797 7.98177 9.72266 8.78906C8.77214 9.58984 7.45378 9.99023 5.76758 9.99023H3.19922ZM3.19922 7.61719H5.81641C6.59115 7.61719 7.18034 7.4349 7.58398 7.07031C7.99414 6.70573 8.19922 6.1849 8.19922 5.50781C8.19922 4.8112 7.99414 4.24805 7.58398 3.81836C7.17383 3.38867 6.60742 3.16732 5.88477 3.1543H3.19922V7.61719ZM15.9727 15H13.1406V4.43359H15.9727V15ZM12.9746 1.69922C12.9746 1.27604 13.1146 0.927734 13.3945 0.654297C13.681 0.380859 14.0684 0.244141 14.5566 0.244141C15.0384 0.244141 15.4225 0.380859 15.709 0.654297C15.9954 0.927734 16.1387 1.27604 16.1387 1.69922C16.1387 2.12891 15.9922 2.48047 15.6992 2.75391C15.4128 3.02734 15.0319 3.16406 14.5566 3.16406C14.0814 3.16406 13.6973 3.02734 13.4043 2.75391C13.1178 2.48047 12.9746 2.12891 12.9746 1.69922ZM21.5488 12.7246H26.7148V15H17.9453V13.2812L22.916 6.71875H18.0918V4.43359H26.5586V6.10352L21.5488 12.7246ZM31.7246 12.7246H36.8906V15H28.1211V13.2812L33.0918 6.71875H28.2676V4.43359H36.7344V6.10352L31.7246 12.7246ZM44.7812 15C44.651 14.7461 44.5566 14.4303 44.498 14.0527C43.8145 14.8145 42.9258 15.1953 41.832 15.1953C40.7969 15.1953 39.9375 14.8958 39.2539 14.2969C38.5768 13.6979 38.2383 12.9427 38.2383 12.0312C38.2383 10.9115 38.6517 10.0521 39.4785 9.45312C40.3118 8.85417 41.513 8.55143 43.082 8.54492H44.3809V7.93945C44.3809 7.45117 44.2539 7.06055 44 6.76758C43.7526 6.47461 43.3587 6.32812 42.8184 6.32812C42.3431 6.32812 41.9688 6.44206 41.6953 6.66992C41.4284 6.89779 41.2949 7.21029 41.2949 7.60742H38.4727C38.4727 6.99544 38.6615 6.42904 39.0391 5.9082C39.4167 5.38737 39.9505 4.98047 40.6406 4.6875C41.3307 4.38802 42.1055 4.23828 42.9648 4.23828C44.2669 4.23828 45.2988 4.56706 46.0605 5.22461C46.8288 5.87565 47.2129 6.79362 47.2129 7.97852V12.5586C47.2194 13.5612 47.3594 14.3197 47.6328 14.834V15H44.7812ZM42.4473 13.0371C42.8639 13.0371 43.248 12.946 43.5996 12.7637C43.9512 12.5749 44.2116 12.3242 44.3809 12.0117V10.1953H43.3262C41.9134 10.1953 41.1615 10.6836 41.0703 11.6602L41.0605 11.8262C41.0605 12.1777 41.1842 12.4674 41.4316 12.6953C41.679 12.9232 42.0176 13.0371 42.4473 13.0371Z" fill="#39B24A"/>
<path d="M48.9902 11.1719C48.9902 10.5143 49.1725 9.9056 49.5371 9.3457C49.9082 8.78581 50.5853 8.16406 51.5684 7.48047C51.1452 6.91406 50.8132 6.38346 50.5723 5.88867C50.3314 5.38737 50.2109 4.86654 50.2109 4.32617C50.2109 3.2194 50.5592 2.32096 51.2559 1.63086C51.959 0.934245 52.903 0.585938 54.0879 0.585938C55.1491 0.585938 56.0182 0.901693 56.6953 1.5332C57.3789 2.16471 57.7207 2.95247 57.7207 3.89648C57.7207 5.0293 57.1478 6.02865 56.002 6.89453L54.9082 7.68555L57.3594 10.5371C57.7435 9.7819 57.9355 8.94857 57.9355 8.03711H60.3379C60.3379 9.88607 59.9115 11.3835 59.0586 12.5293L61.1875 15H57.9844L57.252 14.1602C56.2038 14.8503 54.9993 15.1953 53.6387 15.1953C52.2324 15.1953 51.1061 14.8275 50.2598 14.0918C49.4134 13.3496 48.9902 12.3763 48.9902 11.1719ZM53.7754 12.9297C54.4525 12.9297 55.0938 12.7409 55.6992 12.3633L52.8965 9.12109L52.6914 9.26758C52.112 9.76237 51.8223 10.3451 51.8223 11.0156C51.8223 11.582 52.0013 12.0443 52.3594 12.4023C52.724 12.7539 53.196 12.9297 53.7754 12.9297ZM52.7402 4.28711C52.7402 4.77539 53.0267 5.39062 53.5996 6.13281L54.3516 5.63477C54.7357 5.38737 54.9993 5.14648 55.1426 4.91211C55.2923 4.67773 55.3672 4.39779 55.3672 4.07227C55.3672 3.74674 55.2467 3.46354 55.0059 3.22266C54.765 2.98177 54.4557 2.86133 54.0781 2.86133C53.6745 2.86133 53.349 2.99154 53.1016 3.25195C52.8607 3.51237 52.7402 3.85742 52.7402 4.28711Z" fill="white"/>
<path d="M71.2461 9.18945H65.6211V15H62.6914V0.78125H71.9492V3.1543H65.6211V6.82617H71.2461V9.18945ZM79.1465 7.08008C78.7624 7.02799 78.4238 7.00195 78.1309 7.00195C77.0632 7.00195 76.3633 7.36328 76.0312 8.08594V15H73.209V4.43359H75.875L75.9531 5.69336C76.5195 4.72331 77.304 4.23828 78.3066 4.23828C78.6191 4.23828 78.9121 4.2806 79.1855 4.36523L79.1465 7.08008ZM79.7227 9.61914C79.7227 8.57096 79.9245 7.63672 80.3281 6.81641C80.7318 5.99609 81.3112 5.36133 82.0664 4.91211C82.8281 4.46289 83.7103 4.23828 84.7129 4.23828C86.1387 4.23828 87.3008 4.67448 88.1992 5.54688C89.1042 6.41927 89.6087 7.60417 89.7129 9.10156L89.7324 9.82422C89.7324 11.4453 89.2799 12.7474 88.375 13.7305C87.4701 14.707 86.2559 15.1953 84.7324 15.1953C83.209 15.1953 81.9915 14.707 81.0801 13.7305C80.1751 12.7539 79.7227 11.4258 79.7227 9.74609V9.61914ZM82.5449 9.82422C82.5449 10.8268 82.7337 11.5951 83.1113 12.1289C83.4889 12.6562 84.0293 12.9199 84.7324 12.9199C85.416 12.9199 85.9499 12.6595 86.334 12.1387C86.7181 11.6113 86.9102 10.7715 86.9102 9.61914C86.9102 8.63607 86.7181 7.87435 86.334 7.33398C85.9499 6.79362 85.4095 6.52344 84.7129 6.52344C84.0228 6.52344 83.4889 6.79362 83.1113 7.33398C82.7337 7.86784 82.5449 8.69792 82.5449 9.82422ZM94.0684 4.43359L94.1562 5.6543C94.9115 4.71029 95.9238 4.23828 97.1934 4.23828C98.3132 4.23828 99.1465 4.56706 99.6934 5.22461C100.24 5.88216 100.52 6.86523 100.533 8.17383V15H97.7109V8.24219C97.7109 7.64323 97.5807 7.21029 97.3203 6.94336C97.0599 6.66992 96.627 6.5332 96.0215 6.5332C95.2272 6.5332 94.6315 6.87174 94.2344 7.54883V15H91.4121V4.43359H94.0684ZM106.061 1.83594V4.43359H107.867V6.50391H106.061V11.7773C106.061 12.168 106.135 12.4479 106.285 12.6172C106.435 12.7865 106.721 12.8711 107.145 12.8711C107.457 12.8711 107.734 12.8483 107.975 12.8027V14.9414C107.421 15.1107 106.852 15.1953 106.266 15.1953C104.286 15.1953 103.277 14.196 103.238 12.1973V6.50391H101.695V4.43359H103.238V1.83594H106.061Z" fill="#FC200C"/>
</svg>
