<svg width="37" height="19" viewBox="0 0 37 19" fill="none" xmlns="http://www.w3.org/2000/svg">
<path d="M36.3543 18.8627C36.3682 18.8599 36.3818 18.8562 36.3955 18.8526C36.4071 18.8497 36.4189 18.8472 36.4303 18.8437C36.4437 18.8396 36.4568 18.8346 36.4698 18.8299C36.4814 18.8257 36.493 18.8219 36.5045 18.8171C36.5168 18.812 36.5287 18.806 36.5406 18.8003C36.5523 18.7948 36.5642 18.7896 36.5756 18.7834C36.5871 18.7773 36.5979 18.7704 36.609 18.7637C36.6204 18.7569 36.632 18.7505 36.6431 18.743C36.655 18.7351 36.666 18.7263 36.6775 18.7177C36.6871 18.7106 36.6969 18.7038 36.7064 18.6961C36.7237 18.6819 36.7402 18.6667 36.7562 18.6511C36.7591 18.6483 36.7622 18.6459 36.7651 18.6431C36.7681 18.6401 36.7707 18.6367 36.7736 18.6336C36.789 18.6178 36.8039 18.6015 36.8181 18.5844C36.8263 18.5744 36.8335 18.5639 36.8412 18.5535C36.8491 18.5428 36.8574 18.5324 36.8648 18.5213C36.8727 18.5094 36.8797 18.4971 36.887 18.4849C36.8931 18.4747 36.8996 18.4646 36.9053 18.454C36.9119 18.4417 36.9174 18.429 36.9233 18.4165C36.9286 18.4053 36.9341 18.3943 36.939 18.3829C36.9441 18.3706 36.9482 18.358 36.9526 18.3455C36.957 18.3333 36.9617 18.3212 36.9655 18.3088C36.9693 18.2962 36.9721 18.2834 36.9753 18.2705C36.9784 18.2579 36.9821 18.2455 36.9845 18.2328C36.9875 18.2177 36.9893 18.2025 36.9915 18.1873C36.993 18.1766 36.995 18.166 36.9961 18.1552C36.9988 18.1286 37.0002 18.1019 37.0002 18.0752V0.924173C37.0002 0.480923 36.641 0.121765 36.1977 0.121765H10.9219C10.9148 0.121765 10.908 0.12262 10.9009 0.122834C10.8856 0.123262 10.8704 0.123905 10.8552 0.125188C10.8431 0.126151 10.8312 0.127543 10.8192 0.129147C10.8055 0.130859 10.7919 0.132892 10.7783 0.135352C10.7656 0.137599 10.753 0.140274 10.7404 0.143162C10.7277 0.146158 10.715 0.149368 10.7023 0.153006C10.6898 0.156536 10.6775 0.160387 10.6653 0.164453C10.6528 0.168732 10.6403 0.173226 10.628 0.178148C10.6163 0.182748 10.6049 0.187455 10.5935 0.19259C10.5809 0.198261 10.5684 0.20436 10.556 0.210672C10.5454 0.216128 10.535 0.221692 10.5247 0.227576C10.5123 0.234637 10.5001 0.242126 10.4881 0.249829C10.4781 0.256249 10.4684 0.262882 10.4587 0.269622C10.4474 0.277646 10.4362 0.285991 10.4251 0.294764C10.4151 0.302788 10.4052 0.311026 10.3955 0.319478C10.3859 0.327931 10.3764 0.336382 10.367 0.345369C10.3565 0.355533 10.3463 0.366125 10.3362 0.376823C10.3312 0.382173 10.3259 0.386881 10.321 0.392337C10.3182 0.395547 10.3159 0.399078 10.3131 0.402287C10.3031 0.413949 10.2937 0.426145 10.2842 0.438449C10.2774 0.447436 10.2703 0.456423 10.2639 0.465623C10.2556 0.477606 10.2479 0.48991 10.2402 0.502321C10.2338 0.512484 10.2273 0.522541 10.2215 0.532919C10.2148 0.544901 10.2089 0.557205 10.2028 0.569509C10.1973 0.580742 10.1915 0.591976 10.1865 0.603424C10.1812 0.615514 10.1766 0.628031 10.172 0.640335C10.1674 0.652424 10.1627 0.664407 10.1587 0.676603C10.1548 0.688907 10.1516 0.701424 10.1482 0.713942C10.1447 0.726781 10.1411 0.739512 10.1382 0.752458C10.1355 0.764547 10.1337 0.776851 10.1316 0.789048C10.1292 0.802956 10.1269 0.816865 10.1251 0.830773C10.1238 0.842328 10.1231 0.854096 10.1223 0.865864C10.1212 0.880843 10.1202 0.895822 10.12 0.910907C10.1199 0.915293 10.1194 0.919573 10.1194 0.92396V5.87236C10.1194 6.31561 10.4785 6.67477 10.9218 6.67477C11.365 6.67477 11.7242 6.31561 11.7242 5.87236V2.70605L18.8582 9.02229C18.821 9.0485 18.7852 9.0775 18.7518 9.11077L11.7241 16.1385V10.8653C11.7241 10.422 11.3649 10.0629 10.9217 10.0629C10.4784 10.0629 10.1193 10.422 10.1193 10.8653V11.8457H5.97349C5.53024 11.8457 5.17108 12.2049 5.17108 12.6481C5.17108 13.0914 5.53024 13.4505 5.97349 13.4505H10.1193V18.0757C10.1193 18.519 10.4784 18.8781 10.9217 18.8781H36.1975C36.224 18.8781 36.2504 18.8767 36.2767 18.8742C36.289 18.873 36.3009 18.8706 36.313 18.8689C36.3269 18.867 36.3406 18.8654 36.3543 18.8627ZM35.3952 16.1386L28.3674 9.11088C28.3629 9.10638 28.3581 9.10264 28.3535 9.09836L33.6369 4.61589C33.9748 4.32917 34.0163 3.8229 33.7295 3.48493C33.443 3.14717 32.9368 3.10544 32.5986 3.39227L23.5708 11.0515L13.0385 1.72669H35.3952V16.1386ZM19.8867 10.2458C19.944 10.1886 19.9904 10.1248 20.0267 10.057L23.0278 12.714C23.1795 12.8483 23.3695 12.9157 23.5597 12.9157C23.7444 12.9157 23.9289 12.8522 24.0789 12.7251L27.1374 10.1303C27.1652 10.1709 27.1965 10.2097 27.2326 10.2458L34.2603 17.2735H12.859L19.8867 10.2458Z" fill="white"/>
<path d="M0.802408 9.26027H14.3542C14.7975 9.26027 15.1566 8.90111 15.1566 8.45786C15.1566 8.01461 14.7975 7.65546 14.3542 7.65546H0.802408C0.359158 7.65546 0 8.01461 0 8.45786C0 8.90111 0.359158 9.26027 0.802408 9.26027Z" fill="white"/>
<path d="M2.20674 4.8384H8.29166C8.73491 4.8384 9.09407 4.47924 9.09407 4.03599C9.09407 3.59274 8.73491 3.23358 8.29166 3.23358H2.20674C1.76349 3.23358 1.40433 3.59274 1.40433 4.03599C1.40433 4.47924 1.76349 4.8384 2.20674 4.8384Z" fill="white"/>
<path d="M6.68673 15.2338H0.802408C0.359158 15.2338 0 15.593 0 16.0362C0 16.4795 0.359158 16.8386 0.802408 16.8386H6.68673C7.12998 16.8386 7.48914 16.4795 7.48914 16.0362C7.48914 15.593 7.12998 15.2338 6.68673 15.2338Z" fill="white"/>
</svg>
